<!DOCTYPE svg PUBLIC "-//W3C//DTD SVG 1.1//EN" "http://www.w3.org/Graphics/SVG/1.1/DTD/svg11.dtd">
<!-- Uploaded to: SVG Repo, www.svgrepo.com, Transformed by: SVG Repo Mixer Tools -->
<svg fill="#2161DF" width="800px" height="800px" viewBox="0 0 512 512" xmlns="http://www.w3.org/2000/svg">
<g id="SVGRepo_bgCarrier" stroke-width="0"/>
<g id="SVGRepo_tracerCarrier" stroke-linecap="round" stroke-linejoin="round"/>
<g id="SVGRepo_iconCarrier">
<title>ionicons-v5-a</title>
<path d="M456,128a40,40,0,0,0-37.23,54.6L334.6,266.77a39.86,39.86,0,0,0-29.2,0L245.23,206.6a40,40,0,1,0-74.46,0L70.6,306.77A40,40,0,1,0,93.23,329.4L193.4,229.23a39.86,39.86,0,0,0,29.2,0l60.17,60.17a40,40,0,1,0,74.46,0l84.17-84.17A40,40,0,1,0,456,128Z"/>
</g>
</svg>