<?xml version="1.0" encoding="UTF-8" standalone="no"?>
<!DOCTYPE svg PUBLIC "-//W3C//DTD SVG 1.1//EN" "http://www.w3.org/Graphics/SVG/1.1/DTD/svg11.dtd">
<svg width="100%" height="100%" viewBox="0 0 54 43" version="1.1" xmlns="http://www.w3.org/2000/svg" xmlns:xlink="http://www.w3.org/1999/xlink" xml:space="preserve" xmlns:serif="http://www.serif.com/" style="fill-rule:evenodd;clip-rule:evenodd;stroke-linejoin:round;stroke-miterlimit:2;">
    <g transform="matrix(1,0,0,1,-164.497,-225.776)">
        <g transform="matrix(1.14923,0,0,1.14923,-711.463,-234.07)">
            <g transform="matrix(0.0784036,0,0,0.0784036,742.012,375.376)">
                <path d="M624.284,680.431L659.592,715.742C665.825,721.957 673.082,726.379 681.228,729.226C689.35,732.058 698.398,733.238 707.839,732.609C726.704,731.368 746.924,722.744 763.179,706.488C775.374,694.293 783.272,679.895 786.97,665.467C790.698,651.038 790.165,636.72 785.917,624.537C783.072,616.387 778.63,609.15 772.414,602.919L636.431,466.918C630.197,460.703 622.947,456.282 614.813,453.434C606.661,450.602 597.625,449.403 588.202,450.033C584.65,450.269 581.043,450.774 577.442,451.528L633.284,507.389C644.916,518.987 653.347,532.88 658.479,547.659C663.623,562.462 665.541,578.152 664.501,593.776C662.394,624.901 648.644,655.93 624.284,680.431Z" style="fill:none;fill-rule:nonzero;"/>
                <path d="M532.607,476.438C520.54,488.572 512.72,502.873 509.052,517.193C505.342,531.639 505.857,545.94 510.124,558.123C512.969,566.272 517.392,573.525 523.608,579.741L589.412,645.563C601.468,633.416 609.287,619.127 612.973,604.808C616.683,590.361 616.15,576.061 611.902,563.878C609.052,555.729 604.634,548.475 598.412,542.26L532.607,476.438Z" style="fill:none;fill-rule:nonzero;"/>
                <path d="M497.723,441.568L462.427,406.258C456.181,400.061 448.943,395.621 440.791,392.774C432.657,389.942 423.628,388.743 414.186,389.373C395.304,390.62 375.084,399.241 358.846,415.512C346.633,427.706 338.735,442.105 335.019,456.518C331.309,470.961 331.842,485.268 336.091,497.463C338.936,505.612 343.377,512.85 349.593,519.081L485.606,655.083C491.822,661.28 499.078,665.719 507.212,668.567C515.346,671.399 524.394,672.579 533.823,671.95C537.376,671.714 540.977,671.227 544.583,670.473L488.735,614.625C477.109,603.014 468.679,589.121 463.547,574.342C458.403,559.539 456.478,543.849 457.519,528.225C459.626,497.099 473.382,466.071 497.723,441.568Z" style="fill:none;fill-rule:nonzero;"/>
            </g>
            <g transform="matrix(0.0784036,0,0,0.0784036,740.012,373.486)">
                <path d="M589.412,645.563L624.284,680.432C648.644,655.93 662.394,624.902 664.5,593.776C665.54,578.153 663.622,562.463 658.478,547.659C653.345,532.88 644.915,518.987 633.283,507.389L577.441,451.528L538.732,412.819L497.3,371.389C485.674,359.76 471.791,351.326 457.017,346.198C434.8,338.469 410.646,338.016 387.576,343.947C364.511,349.866 342.355,362.248 323.957,380.629C299.44,405.176 285.611,436.314 283.505,467.567C282.446,483.175 284.371,498.88 289.514,513.671C294.658,528.462 303.095,542.34 314.721,553.954L450.723,689.953C462.337,701.564 476.214,710 491.006,715.13C513.223,722.855 537.359,723.312 560.429,717.396C568.187,715.399 575.837,712.612 583.293,709.183L544.584,670.474C540.977,671.228 537.377,671.715 533.824,671.951C524.395,672.58 515.347,671.4 507.213,668.568C499.079,665.72 491.823,661.281 485.607,655.084L349.593,519.081C343.377,512.85 338.935,505.612 336.091,497.463C331.842,485.268 331.31,470.961 335.019,456.518C338.735,442.105 346.633,427.707 358.846,415.512C375.084,399.241 395.304,390.62 414.186,389.373C423.628,388.743 432.657,389.942 440.791,392.774C448.943,395.622 456.181,400.061 462.427,406.258L497.723,441.568L532.607,476.437L598.411,542.259C604.632,548.474 609.05,555.728 611.901,563.877C616.15,576.06 616.682,590.361 612.972,604.807C609.287,619.127 601.468,633.416 589.412,645.563Z" style="fill:rgb(233,50,102);fill-rule:nonzero;"/>
            </g>
            <g transform="matrix(0.0784036,0,0,0.0784036,742.012,375.376)">
                <path d="M801.834,562.597L807.285,568.048C818.912,579.663 827.348,593.54 832.48,608.319C837.624,623.141 839.543,638.813 838.502,654.436C836.396,685.67 822.567,716.827 798.05,741.362C779.651,759.754 757.513,772.124 734.43,778.056C711.36,783.986 687.224,783.532 665.007,775.804C650.216,770.66 636.332,762.241 624.725,750.612L583.292,709.183L488.735,614.626C477.109,603.014 468.679,589.122 463.547,574.343C458.403,559.539 456.478,543.849 457.519,528.226C459.626,497.1 473.382,466.071 497.723,441.569L532.607,476.438C520.54,488.572 512.72,502.873 509.052,517.193C505.343,531.639 505.857,545.94 510.124,558.123C512.968,566.272 517.392,573.525 523.608,579.741L589.412,645.563L624.284,680.432L659.592,715.743C665.825,721.958 673.082,726.379 681.228,729.227C689.35,732.059 698.398,733.239 707.839,732.61C726.704,731.369 746.923,722.745 763.179,706.489C775.374,694.294 783.272,679.896 786.97,665.468C790.698,651.039 790.165,636.721 785.917,624.538C784.469,620.39 782.607,616.478 780.308,612.815L801.834,562.597ZM690.193,520.689L636.429,466.918C630.195,460.703 622.945,456.282 614.811,453.434C606.659,450.602 597.623,449.403 588.2,450.033C584.648,450.269 581.041,450.774 577.44,451.528L538.731,412.819C546.169,409.39 553.837,406.591 561.59,404.591C584.66,398.675 608.796,399.146 631.019,406.857C645.811,411.986 659.67,420.438 671.302,432.064L711.116,471.878L690.193,520.689Z" style="fill:rgb(233,50,102);"/>
            </g>
            <g transform="matrix(1.21137,0.519261,-0.54477,1.27087,-4.51447,-519.887)">
                <path d="M839,384.992L839,383.588C839,383.196 839.164,382.82 839.455,382.542C839.746,382.265 840.141,382.109 840.552,382.109L842.448,382.109C842.859,382.109 843.254,382.265 843.545,382.542C843.836,382.82 844,383.196 844,383.588L844,384.992L839,384.992ZM844,386.184L844,398.66L839,398.66L839,386.184L844,386.184ZM840.633,401.624L839,399.29L844,399.29L842.367,401.624C842.174,401.901 841.848,402.067 841.5,402.067C841.152,402.067 840.826,401.901 840.633,401.624Z" style="fill:rgb(233,50,102);"/>
            </g>
        </g>
    </g>
</svg>
