<?xml version="1.0" encoding="UTF-8" standalone="no"?>
<!DOCTYPE svg PUBLIC "-//W3C//DTD SVG 1.1//EN" "http://www.w3.org/Graphics/SVG/1.1/DTD/svg11.dtd">
<svg width="100%" height="100%" viewBox="0 0 47 55" version="1.1" xmlns="http://www.w3.org/2000/svg" xmlns:xlink="http://www.w3.org/1999/xlink" xml:space="preserve" xmlns:serif="http://www.serif.com/" style="fill-rule:evenodd;clip-rule:evenodd;stroke-linejoin:round;stroke-miterlimit:2;">
    <g transform="matrix(1,0,0,1,-385.493,-217.683)">
        <g>
            <g transform="matrix(1.14822,0,0,1.14822,-64.927,-24.1466)">
                <rect x="403.755" y="225.85" width="3.516" height="17.063" style="fill:rgb(233,50,102);fill-rule:nonzero;"/>
                <path d="M414.044,236.901L414.044,242.913L410.529,242.913L410.529,225.85L417.185,225.85C418.466,225.85 419.593,226.085 420.566,226.554C421.538,227.022 422.286,227.688 422.81,228.552C423.333,229.415 423.595,230.397 423.595,231.499C423.595,233.171 423.023,234.489 421.878,235.454C420.734,236.419 419.15,236.901 417.126,236.901L414.044,236.901ZM414.044,234.054L417.185,234.054C418.115,234.054 418.823,233.835 419.312,233.397C419.8,232.96 420.044,232.335 420.044,231.522C420.044,230.686 419.798,230.011 419.306,229.495C418.814,228.979 418.134,228.714 417.267,228.698L414.044,228.698L414.044,234.054Z" style="fill:rgb(233,50,102);fill-rule:nonzero;"/>
            </g>
            <g transform="matrix(0.210378,0,0,0.210378,373.991,211.582)">
                <path d="M166.171,288.471L164.495,288.172C163.348,287.968 136.102,282.898 108.938,259.325C84.184,237.843 54.675,196.233 54.675,119.997L54.675,72.361L64.229,72.361C124.035,72.361 158.883,36.459 159.228,36.096L165.98,29L172.926,35.905C173.278,36.254 210.394,72.361 268.112,72.361L277.666,72.361L277.666,119.998C277.666,153.417 272.029,183.028 260.912,208.009C251.884,228.296 239.264,245.562 223.402,259.326C196.239,282.899 168.992,287.969 167.845,288.173L166.171,288.471ZM73.784,91.203L73.784,119.998C73.784,174.956 89.573,216.756 120.714,244.239C140.347,261.566 160.32,267.523 166.174,268.978C171.988,267.533 191.978,261.582 211.628,244.239C242.769,216.756 258.559,174.955 258.559,119.998L258.559,91.185C212.461,88.435 179.846,66.422 166.318,55.484C153.13,66.564 121.296,88.539 73.784,91.203Z" style="fill:rgb(233,50,102);fill-rule:nonzero;"/>
            </g>
        </g>
    </g>
</svg>
