<svg width="100" height="100" viewBox="0 0 100 100" fill="none" xmlns="http://www.w3.org/2000/svg">
<path d="M38.2262 31.7339H30.9038V67.2691H38.2262V31.7339Z" fill="#E93266"/>
<path d="M52.3316 54.7486V67.2691H45.0112V31.7339H58.873C61.5408 31.7339 63.8879 32.2233 65.9142 33.2C67.9385 34.1747 69.4963 35.5617 70.5875 37.361C71.6767 39.1583 72.2224 41.2034 72.2224 43.4984C72.2224 46.9805 71.0311 49.7254 68.6465 51.7351C66.2641 53.7448 62.9653 54.7486 58.7501 54.7486H52.3316ZM52.3316 48.8194H58.873C60.8098 48.8194 62.2843 48.3634 63.3027 47.4512C64.319 46.5411 64.8271 45.2395 64.8271 43.5463C64.8271 41.8053 64.3148 40.3995 63.2901 39.3249C62.2655 38.2503 60.8493 37.6984 59.0437 37.6651H52.3316V48.8194Z" fill="#E93266"/>
<path d="M49.544 99.0074L48.9045 98.8933C48.4668 98.8155 38.0704 96.8809 27.7054 87.8861C18.2599 79.6891 7 63.8118 7 34.7221V16.5454H10.6456C33.466 16.5454 46.7631 2.84616 46.8947 2.70765L49.4711 0L52.1215 2.63477C52.2558 2.76794 66.4183 16.5454 88.442 16.5454H92.0876V34.7225C92.0876 47.4743 89.9367 58.7731 85.6947 68.3052C82.2499 76.0462 77.4344 82.6345 71.3819 87.8865C61.0172 96.8813 50.6204 98.8159 50.1827 98.8937L49.544 99.0074ZM14.2915 23.7351V34.7225C14.2915 55.693 20.3162 71.6428 32.1988 82.1296C39.6902 88.7412 47.3114 91.0142 49.5451 91.5694C51.7636 91.018 59.3913 88.7473 66.8892 82.1296C78.7718 71.6428 84.7969 55.6927 84.7969 34.7225V23.7282C67.2071 22.6789 54.762 14.2793 49.6001 10.1056C44.5679 14.3335 32.4209 22.7185 14.2915 23.7351Z" fill="#E93266"/>
</svg>
