<svg width="500" height="500" viewBox="0 0 500 500" fill="none" xmlns="http://www.w3.org/2000/svg">
<path d="M88.56 97.2091C84.81 94.7271 79.96 93.9811 75.637 95.2201C71.314 96.4591 67.94 100.163 66.075 104.255H175.121C175.337 100.641 173.443 96.9771 170.37 95.0641C167.297 93.1511 163.438 93.1391 160.291 94.9291C160.391 90.5611 158.125 86.2111 154.49 83.7881C150.855 81.3651 145.423 80.3271 141.43 82.1001C139.784 75.5141 134.542 69.9471 128.066 67.9091C121.59 65.8711 114.105 67.4321 108.983 71.8881C104.638 75.6691 103.087 82.7551 104.693 88.2861C102.199 85.3921 97.214 84.9581 93.92 86.8941C90.628 88.8281 87.245 93.6221 88.56 97.2091Z" fill="#B4D1FD"/>
<path d="M402.109 124.26C399.174 122.318 395.377 121.733 391.994 122.703C388.611 123.673 385.97 126.572 384.509 129.775H469.863C470.032 126.946 468.55 124.078 466.144 122.581C463.738 121.084 460.718 121.074 458.255 122.475C458.333 119.056 456.56 115.651 453.715 113.755C450.87 111.858 446.618 111.046 443.492 112.434C442.204 107.279 438.101 102.921 433.032 101.326C427.963 99.7311 422.104 100.953 418.096 104.441C414.695 107.4 413.481 112.947 414.738 117.276C412.786 115.011 408.884 114.671 406.306 116.186C403.728 117.7 401.08 121.453 402.109 124.26Z" fill="#B4D1FD"/>
<path d="M467.86 240.12V422.08H32.14V197H70.68V233H81.01V139.15H257.86V100.33H290.53V230.7H342.01V144.36L379.13 123V164.57H447.2V240.12H467.86Z" fill="#E5ECFF"/>
<path d="M290.53 230.7V100.33H275V422.08H291V230.7H290.53Z" fill="#B4D1FD"/>
<path d="M339 230.7H326.333V422.08H339V230.7Z" fill="#B4D1FD"/>
<path d="M371.667 127.295V422.08H379V123.075L371.667 127.295Z" fill="#B4D1FD"/>
<path d="M467.86 240.12H457.53V422.08H467.86V240.12Z" fill="#B4D1FD"/>
<path d="M447.2 164.57H426.526V422.08H447.2V164.57Z" fill="#B4D1FD"/>
<path d="M257.86 139.15H175.138V418.425H257.86V139.15Z" fill="#B4D1FD"/>
<path d="M70.6799 197H49.9999V422.159H70.6799V197Z" fill="#B4D1FD"/>
<path d="M248.329 422.083H117.992C109.015 422.083 101.738 414.806 101.738 405.829V131.459C101.738 122.482 109.015 115.205 117.992 115.205H248.329C257.306 115.205 264.583 122.482 264.583 131.459V405.828C264.584 414.806 257.306 422.083 248.329 422.083Z" fill="#1933AE"/>
<path d="M117.992 416.083C112.338 416.083 107.738 411.482 107.738 405.828V131.46C107.738 125.806 112.338 121.206 117.992 121.206H248.329C253.983 121.206 258.583 125.806 258.583 131.46V405.829C258.583 411.483 253.983 416.084 248.329 416.084H117.992V416.083Z" fill="#7F96FC"/>
<path d="M252.921 404.471L252.921 126.868L113.4 126.868L113.4 404.471H252.921Z" fill="#324BCC"/>
<path d="M183.161 413.682C184.958 413.682 186.415 412.225 186.415 410.428C186.415 408.631 184.958 407.174 183.161 407.174C181.364 407.174 179.907 408.631 179.907 410.428C179.907 412.225 181.364 413.682 183.161 413.682Z" fill="#1933AE"/>
<path d="M131.547 147.505H126.135C125.583 147.505 125.135 147.057 125.135 146.505C125.135 145.953 125.583 145.505 126.135 145.505H131.547C132.099 145.505 132.547 145.953 132.547 146.505C132.547 147.058 132.099 147.505 131.547 147.505Z" fill="#7F96FC"/>
<path d="M131.547 151.757H126.135C125.583 151.757 125.135 151.309 125.135 150.757C125.135 150.205 125.583 149.757 126.135 149.757H131.547C132.099 149.757 132.547 150.205 132.547 150.757C132.547 151.31 132.099 151.757 131.547 151.757Z" fill="#7F96FC"/>
<path d="M131.547 156.009H126.135C125.583 156.009 125.135 155.561 125.135 155.009C125.135 154.457 125.583 154.009 126.135 154.009H131.547C132.099 154.009 132.547 154.457 132.547 155.009C132.547 155.561 132.099 156.009 131.547 156.009Z" fill="#7F96FC"/>
<path d="M240.186 149.393H228.59V155.589H240.186V149.393Z" fill="#7F96FC"/>
<path d="M240.186 144.86H228.59V148.438H240.186V144.86Z" fill="#7F96FC"/>
<path d="M230.781 146.407C230.505 146.407 230.281 146.183 230.281 145.907V144.357C230.281 144.081 230.505 143.857 230.781 143.857C231.057 143.857 231.281 144.081 231.281 144.357V145.907C231.281 146.183 231.058 146.407 230.781 146.407Z" fill="#7F96FC"/>
<path d="M238.273 146.407C237.997 146.407 237.773 146.183 237.773 145.907V144.357C237.773 144.081 237.997 143.857 238.273 143.857C238.549 143.857 238.773 144.081 238.773 144.357V145.907C238.773 146.183 238.549 146.407 238.273 146.407Z" fill="#7F96FC"/>
<path d="M245.714 159.672H120.606V176.556H245.714V159.672Z" fill="#7F96FC"/>
<path d="M245.714 176.556H120.606V238.25H245.714V176.556Z" fill="#1933AE"/>
<path d="M187.881 188.352C187.881 192.125 184.822 195.184 181.049 195.184C177.276 195.184 174.217 192.125 174.217 188.352C174.217 184.579 177.276 181.52 181.049 181.52C184.822 181.52 187.881 184.579 187.881 188.352Z" fill="#7F96FC"/>
<path d="M184.587 189.776H180.734C180.458 189.776 180.234 189.552 180.234 189.276V184.7C180.234 184.424 180.458 184.2 180.734 184.2C181.01 184.2 181.234 184.424 181.234 184.7V188.776H184.587C184.863 188.776 185.087 189 185.087 189.276C185.087 189.553 184.864 189.776 184.587 189.776Z" fill="#1933AE"/>
<path d="M210.977 185.905H193.796V190.8H210.977V185.905Z" fill="#7F96FC"/>
<path d="M232.227 185.905H215.046V190.8H232.227V185.905Z" fill="#7F96FC"/>
<path d="M232.227 199.268H174.217V204.163H232.227V199.268Z" fill="#7F96FC"/>
<path d="M232.227 211.437H174.217V216.332H232.227V211.437Z" fill="#7F96FC"/>
<path d="M168.114 181.52H134.095V215.539H168.114V181.52Z" fill="#7F96FC"/>
<path d="M151.104 196.137C153.769 196.137 155.93 193.976 155.93 191.311C155.93 188.646 153.769 186.485 151.104 186.485C148.439 186.485 146.278 188.646 146.278 191.311C146.278 193.976 148.439 196.137 151.104 196.137Z" fill="#1933AE"/>
<path d="M159.338 210.574H142.87V204.371C142.87 199.823 146.556 196.137 151.104 196.137C155.652 196.137 159.338 199.824 159.338 204.371V210.574Z" fill="#1933AE"/>
<path d="M194.268 233.287H187.615C184.834 233.287 182.579 231.032 182.579 228.251C182.579 225.47 184.834 223.215 187.615 223.215H194.268C197.049 223.215 199.304 225.47 199.304 228.251C199.304 231.032 197.049 233.287 194.268 233.287Z" fill="#7F96FC"/>
<path d="M218.828 233.287H212.175C209.394 233.287 207.139 231.032 207.139 228.251C207.139 225.47 209.394 223.215 212.175 223.215H218.828C221.609 223.215 223.864 225.47 223.864 228.251C223.864 231.032 221.61 233.287 218.828 233.287Z" fill="#7F96FC"/>
<path d="M168.114 225.803H134.095V230.698H168.114V225.803Z" fill="#7F96FC"/>
<path d="M245.714 279.325H120.606V306.779H245.714V279.325Z" fill="#1933AE"/>
<path d="M148.06 279.325H120.606V306.779H148.06V279.325Z" fill="#324BCC"/>
<path d="M134.334 291.122C136.485 291.122 138.229 289.378 138.229 287.227C138.229 285.076 136.485 283.332 134.334 283.332C132.183 283.332 130.439 285.076 130.439 287.227C130.439 289.378 132.183 291.122 134.334 291.122Z" fill="#7F96FC"/>
<path d="M140.979 302.772H127.689V297.766C127.689 294.096 130.664 291.121 134.334 291.121C138.004 291.121 140.979 294.096 140.979 297.766V302.772Z" fill="#7F96FC"/>
<path d="M158.45 303.779C162.223 303.779 165.282 300.72 165.282 296.947C165.282 293.174 162.223 290.115 158.45 290.115C154.677 290.115 151.618 293.174 151.618 296.947C151.618 300.72 154.677 303.779 158.45 303.779Z" fill="#7F96FC"/>
<path d="M161.989 298.371H158.136C157.86 298.371 157.636 298.147 157.636 297.871V293.295C157.636 293.019 157.86 292.795 158.136 292.795C158.412 292.795 158.636 293.019 158.636 293.295V297.371H161.989C162.265 297.371 162.489 297.595 162.489 297.871C162.489 298.147 162.265 298.371 161.989 298.371Z" fill="#324BCC"/>
<path d="M188.274 296.947H169.705V301.708H188.274V296.947Z" fill="#7F96FC"/>
<path d="M214.704 284.846H169.705V289.607H214.704V284.846Z" fill="#7F96FC"/>
<path d="M214.158 296.947H195.589V301.708H214.158V296.947Z" fill="#7F96FC"/>
<path d="M236.294 289.8H230.882C230.33 289.8 229.882 289.353 229.882 288.8C229.882 288.247 230.33 287.8 230.882 287.8H236.294C236.846 287.8 237.294 288.247 237.294 288.8C237.294 289.353 236.846 289.8 236.294 289.8Z" fill="#324BCC"/>
<path d="M236.294 294.052H230.882C230.33 294.052 229.882 293.605 229.882 293.052C229.882 292.499 230.33 292.052 230.882 292.052H236.294C236.846 292.052 237.294 292.499 237.294 293.052C237.294 293.604 236.846 294.052 236.294 294.052Z" fill="#324BCC"/>
<path d="M236.294 298.304H230.882C230.33 298.304 229.882 297.857 229.882 297.304C229.882 296.751 230.33 296.304 230.882 296.304H236.294C236.846 296.304 237.294 296.751 237.294 297.304C237.294 297.857 236.846 298.304 236.294 298.304Z" fill="#324BCC"/>
<path d="M245.714 318.871H120.606V346.325H245.714V318.871Z" fill="#1933AE"/>
<path d="M148.06 318.871H120.606V346.325H148.06V318.871Z" fill="#324BCC"/>
<path d="M134.334 330.667C136.485 330.667 138.229 328.923 138.229 326.772C138.229 324.621 136.485 322.877 134.334 322.877C132.183 322.877 130.439 324.621 130.439 326.772C130.439 328.923 132.183 330.667 134.334 330.667Z" fill="#7F96FC"/>
<path d="M140.979 342.318H127.689V337.312C127.689 333.642 130.664 330.667 134.334 330.667C138.004 330.667 140.979 333.642 140.979 337.312V342.318Z" fill="#7F96FC"/>
<path d="M158.45 343.324C162.223 343.324 165.282 340.265 165.282 336.492C165.282 332.719 162.223 329.66 158.45 329.66C154.677 329.66 151.618 332.719 151.618 336.492C151.618 340.265 154.677 343.324 158.45 343.324Z" fill="#7F96FC"/>
<path d="M161.989 337.917H158.136C157.86 337.917 157.636 337.693 157.636 337.417V332.841C157.636 332.565 157.86 332.341 158.136 332.341C158.412 332.341 158.636 332.565 158.636 332.841V336.917H161.989C162.265 336.917 162.489 337.141 162.489 337.417C162.489 337.693 162.265 337.917 161.989 337.917Z" fill="#324BCC"/>
<path d="M188.274 336.492H169.705V341.253H188.274V336.492Z" fill="#7F96FC"/>
<path d="M214.704 324.392H169.705V329.153H214.704V324.392Z" fill="#7F96FC"/>
<path d="M214.158 336.492H195.589V341.253H214.158V336.492Z" fill="#7F96FC"/>
<path d="M236.294 329.346H230.882C230.33 329.346 229.882 328.899 229.882 328.346C229.882 327.793 230.33 327.346 230.882 327.346H236.294C236.846 327.346 237.294 327.793 237.294 328.346C237.294 328.899 236.846 329.346 236.294 329.346Z" fill="#324BCC"/>
<path d="M236.294 333.598H230.882C230.33 333.598 229.882 333.151 229.882 332.598C229.882 332.045 230.33 331.598 230.882 331.598H236.294C236.846 331.598 237.294 332.045 237.294 332.598C237.294 333.15 236.846 333.598 236.294 333.598Z" fill="#324BCC"/>
<path d="M236.294 337.85H230.882C230.33 337.85 229.882 337.403 229.882 336.85C229.882 336.297 230.33 335.85 230.882 335.85H236.294C236.846 335.85 237.294 336.297 237.294 336.85C237.294 337.403 236.846 337.85 236.294 337.85Z" fill="#324BCC"/>
<path d="M245.714 358.417H120.606V385.871H245.714V358.417Z" fill="#1933AE"/>
<path d="M148.06 358.417H120.606V385.871H148.06V358.417Z" fill="#324BCC"/>
<path d="M134.334 370.214C136.485 370.214 138.229 368.47 138.229 366.319C138.229 364.168 136.485 362.424 134.334 362.424C132.183 362.424 130.439 364.168 130.439 366.319C130.439 368.47 132.183 370.214 134.334 370.214Z" fill="#7F96FC"/>
<path d="M140.979 381.864H127.689V376.858C127.689 373.188 130.664 370.213 134.334 370.213C138.004 370.213 140.979 373.188 140.979 376.858V381.864Z" fill="#7F96FC"/>
<path d="M158.45 382.871C162.223 382.871 165.282 379.812 165.282 376.039C165.282 372.266 162.223 369.207 158.45 369.207C154.677 369.207 151.618 372.266 151.618 376.039C151.618 379.812 154.677 382.871 158.45 382.871Z" fill="#7F96FC"/>
<path d="M161.989 377.463H158.136C157.86 377.463 157.636 377.239 157.636 376.963V372.387C157.636 372.111 157.86 371.887 158.136 371.887C158.412 371.887 158.636 372.111 158.636 372.387V376.463H161.989C162.265 376.463 162.489 376.687 162.489 376.963C162.489 377.239 162.265 377.463 161.989 377.463Z" fill="#324BCC"/>
<path d="M188.274 376.039H169.705V380.8H188.274V376.039Z" fill="#7F96FC"/>
<path d="M214.704 363.938H169.705V368.699H214.704V363.938Z" fill="#7F96FC"/>
<path d="M214.158 376.039H195.589V380.8H214.158V376.039Z" fill="#7F96FC"/>
<path d="M236.294 368.892H230.882C230.33 368.892 229.882 368.445 229.882 367.892C229.882 367.339 230.33 366.892 230.882 366.892H236.294C236.846 366.892 237.294 367.339 237.294 367.892C237.294 368.445 236.846 368.892 236.294 368.892Z" fill="#324BCC"/>
<path d="M236.294 373.144H230.882C230.33 373.144 229.882 372.697 229.882 372.144C229.882 371.591 230.33 371.144 230.882 371.144H236.294C236.846 371.144 237.294 371.591 237.294 372.144C237.294 372.696 236.846 373.144 236.294 373.144Z" fill="#324BCC"/>
<path d="M236.294 377.397H230.882C230.33 377.397 229.882 376.95 229.882 376.397C229.882 375.844 230.33 375.397 230.882 375.397H236.294C236.846 375.397 237.294 375.844 237.294 376.397C237.294 376.949 236.846 377.397 236.294 377.397Z" fill="#324BCC"/>
<path d="M154.625 258.654H120.606V263.549H154.625V258.654Z" fill="#7F96FC"/>
<path opacity="0.42" d="M113.401 126.868L252.921 404.471V126.868H113.401Z" fill="#738AFF"/>
<path d="M75.463 294.526C75.037 294.041 74.332 294.751 74.756 295.233C90.875 313.57 97.107 339.562 91.08 363.218C90.921 363.843 91.885 364.108 92.044 363.484C98.162 339.469 91.822 313.136 75.463 294.526Z" fill="#8DB2EB"/>
<path d="M92.797 331.438C91.715 311.058 96.124 290.413 105.437 272.253C104.084 292.393 99.804 312.508 92.797 331.438Z" fill="#8DB2EB"/>
<path d="M86.893 313.212C84.85 294.872 71.739 278.211 54.393 271.913C59.511 289.226 71.108 304.45 86.893 313.212Z" fill="#8DB2EB"/>
<path d="M93.582 335.872C85.894 323.533 73.633 314.117 59.729 309.872C68.553 321.168 80.252 330.6 93.582 335.872Z" fill="#8DB2EB"/>
<path d="M73.58 397.088C63.831 393.39 56.11 385.758 52.246 376.083C47.946 365.317 48.993 353.164 49.899 341.882C49.951 341.239 48.95 341.244 48.899 341.882C47.959 353.584 46.93 366.205 51.661 377.291C55.757 386.89 63.559 394.352 73.314 398.052C73.918 398.282 74.177 397.315 73.58 397.088Z" fill="#8DB2EB"/>
<path d="M48.864 363.554C43.765 349.103 45.411 332.425 53.236 319.248C56.537 334.023 54.648 349.564 48.864 363.554Z" fill="#8DB2EB"/>
<path d="M51.247 373.825C50.529 366.586 54.338 359.09 60.608 355.401C60.792 362.512 57.111 369.799 51.247 373.825Z" fill="#8DB2EB"/>
<path d="M50.984 373.339C45.786 368.465 38.045 366.47 31.139 368.224C33.163 371.489 36.011 374.14 39.724 375.124C43.438 376.107 47.61 375.175 50.984 373.339Z" fill="#8DB2EB"/>
<path d="M147.13 422.08H40.51C39.94 419.71 39.64 417.27 39.63 414.83C39.61 409.32 41.15 403.66 44.78 399.51C48.4 395.37 54.31 393.05 59.62 394.51C57.42 390.53 58.55 385.06 61.87 381.96C65.2 378.86 70.67 378.38 74.48 380.84C67.28 375.88 65.56 363.96 70.18 356.54C71.18 354.93 72.47 353.52 73.94 352.35C79.24 348.13 87.0199 346.93 93.2399 349.79C101.19 353.44 105.76 363.09 103.82 371.62C109.88 368.02 118.87 370.3 123.21 375.86C127.55 381.42 127.02 390.19 122.05 395.19C126.59 392.37 132.86 393.58 137.64 395.97C142.41 398.35 145.92 402.95 147.4 408.09C148.71 412.63 148.49 417.54 147.13 422.08Z" fill="#7AA1DE"/>
<path d="M123.82 422.08H40.51C39.94 419.71 39.64 417.27 39.63 414.83C39.61 409.32 41.15 403.66 44.78 399.51C48.4 395.37 54.31 393.05 59.62 394.51C57.42 390.53 58.55 385.06 61.87 381.96C65.2 378.86 70.67 378.38 74.48 380.84C67.28 375.88 65.56 363.96 70.18 356.54C71.18 354.93 72.47 353.52 73.94 352.35C79.34 356.94 82.09 364.65 80.5 371.62C86.57 368.02 95.56 370.3 99.9 375.86C104.23 381.42 103.71 390.19 98.7399 395.19C103.27 392.37 109.54 393.58 114.32 395.97C119.1 398.35 122.61 402.95 124.09 408.09C125.4 412.63 125.18 417.54 123.82 422.08Z" fill="#8DB2EB"/>
<path d="M94.817 372.165C94.817 375.176 92.376 380.075 89.365 380.075C86.354 380.075 83.912 375.176 83.912 372.165C83.912 369.154 86.353 366.712 89.365 366.712C92.376 366.713 94.817 369.154 94.817 372.165Z" fill="#CDE0FF"/>
<path d="M82.055 373.515C84.919 374.446 88.824 378.281 87.893 381.145C86.963 384.009 81.549 384.817 78.685 383.886C75.821 382.955 74.254 379.879 75.184 377.015C76.115 374.152 79.191 372.585 82.055 373.515Z" fill="#CDE0FF"/>
<path d="M79.394 386.07C81.164 383.634 86.019 381.105 88.455 382.875C90.891 384.645 89.987 390.043 88.217 392.479C86.447 394.915 83.037 395.455 80.601 393.685C78.164 391.917 77.624 388.507 79.394 386.07Z" fill="#CDE0FF"/>
<path d="M90.513 392.48C88.743 390.044 87.838 384.646 90.275 382.876C92.711 381.106 97.566 383.634 99.336 386.071C101.106 388.507 100.566 391.917 98.13 393.687C95.693 395.457 92.283 394.917 90.513 392.48Z" fill="#CDE0FF"/>
<path d="M100.045 383.887C97.181 384.818 91.768 384.01 90.837 381.146C89.907 378.282 93.811 374.447 96.675 373.516C99.539 372.585 102.615 374.153 103.546 377.017C104.476 379.88 102.909 382.956 100.045 383.887Z" fill="#CDE0FF"/>
<path d="M94.817 381.624C94.817 384.635 92.376 387.077 89.365 387.077C86.354 387.077 83.912 384.636 83.912 381.624C83.912 378.613 86.353 376.171 89.365 376.171C92.376 376.171 94.817 378.612 94.817 381.624Z" fill="white"/>
<path d="M468.61 422.08H401.39L403.39 377.05L403.46 375.39C408.46 371.14 416.06 370.27 421.89 373.27C427.72 376.27 431.42 382.97 430.87 389.51C434.38 388.42 438.48 388.97 441.4 391.22C444.31 393.46 446.05 397.16 445.91 400.83C451.79 399.14 459.46 400.93 463.85 405.2C468.25 409.47 470.13 416.15 468.61 422.08Z" fill="#7AA1DE"/>
<path d="M455.5 422.08H401.39L403.39 377.05C405.1 377.3 406.76 377.82 408.3 378.62C414.13 381.62 417.84 388.32 417.28 394.85C420.79 393.77 424.89 394.32 427.81 396.56C430.72 398.8 432.46 402.5 432.32 406.18C438.2 404.48 445.87 406.28 450.26 410.55C453.37 413.56 455.22 417.78 455.5 422.08Z" fill="#8DB2EB"/>
<path d="M395.113 339.262C391.929 325.637 397.42 311.573 403.674 299.056C409.928 286.539 417.22 273.9 417.922 259.926C424.102 267.56 423.51 278.283 420.619 287.67C417.728 297.057 412.021 305.268 406.759 313.561C401.498 321.854 396.282 329.51 395.113 339.262Z" fill="#8DB2EB"/>
<path d="M368.418 287.878C365.711 292.809 366.383 299.039 368.782 304.127C371.181 309.215 375.098 313.403 378.952 317.501C384.212 323.094 389.473 328.687 394.734 334.279C396.209 325.251 390.696 316.601 384.61 309.772C378.522 302.944 371.385 296.531 368.418 287.878Z" fill="#8DB2EB"/>
<path d="M429.115 188.328C413.807 222.331 403.44 258.438 398.302 295.304C399.395 258.161 390.957 220.926 373.819 187.88C373.522 187.307 372.659 187.813 372.955 188.385C392.531 226.132 400.669 269.353 396.205 311.636C396.187 311.806 396.247 311.927 396.342 312.006C395.035 325.623 394.434 339.314 394.566 353.014C394.572 353.659 395.572 353.659 395.566 353.014C395.023 296.594 406.815 240.284 429.978 188.833C430.241 188.25 429.379 187.741 429.115 188.328Z" fill="#8DB2EB"/>
<path d="M448.446 149.045C446.277 168.457 444.074 188.032 437.971 206.587C431.868 225.142 421.986 244.762 406.245 256.326C403.513 217.189 419.243 175.242 448.446 149.045Z" fill="#8DB2EB"/>
<path d="M362.071 175.5C362.071 175.5 397.891 200.546 392.348 240.122C392.348 240.122 359.369 213.102 362.071 175.5Z" fill="#8DB2EB"/>
<path d="M421.67 329.41L413.1 422.08H376.33L367.77 329.41H421.67Z" fill="#A5C5FE"/>
<path d="M405.95 329.41L397.38 422.08H376.33L367.77 329.41H405.95Z" fill="#CDE0FF"/>
<path d="M437.035 392.162C437.035 395.173 434.594 400.072 431.582 400.072C428.571 400.072 426.129 395.173 426.129 392.162C426.129 389.151 428.57 386.709 431.582 386.709C434.594 386.709 437.035 389.15 437.035 392.162Z" fill="#CDE0FF"/>
<path d="M424.272 393.511C427.136 394.442 431.041 398.277 430.11 401.141C429.179 404.005 423.766 404.813 420.902 403.882C418.038 402.951 416.471 399.875 417.401 397.011C418.332 394.148 421.408 392.581 424.272 393.511Z" fill="#CDE0FF"/>
<path d="M421.612 406.066C423.382 403.63 428.237 401.101 430.673 402.871C433.109 404.641 432.205 410.039 430.435 412.476C428.665 414.912 425.255 415.452 422.819 413.682C420.382 411.913 419.842 408.503 421.612 406.066Z" fill="#CDE0FF"/>
<path d="M432.731 412.476C430.961 410.04 430.057 404.641 432.493 402.871C434.929 401.101 439.784 403.629 441.554 406.066C443.324 408.502 442.784 411.912 440.348 413.682C437.911 415.453 434.501 414.913 432.731 412.476Z" fill="#CDE0FF"/>
<path d="M442.263 403.883C439.399 404.814 433.986 404.006 433.055 401.142C432.124 398.278 436.029 394.442 438.893 393.512C441.757 392.581 444.833 394.149 445.764 397.013C446.694 399.876 445.127 402.952 442.263 403.883Z" fill="#CDE0FF"/>
<path d="M437.035 401.62C437.035 404.631 434.594 407.073 431.582 407.073C428.571 407.073 426.129 404.632 426.129 401.62C426.129 398.609 428.57 396.167 431.582 396.167C434.594 396.167 437.035 398.608 437.035 401.62Z" fill="white"/>
<path d="M238.781 156.807C237.623 156.898 236.507 157.488 235.957 158.511C235.21 159.903 235.357 161.652 235.982 163.11C236.405 164.097 237.021 164.98 237.698 165.819C238.28 166.541 239.47 166.366 239.746 165.48C239.791 165.337 239.824 165.19 239.844 165.038C240.086 163.184 240.328 161.33 240.569 159.476C240.734 158.215 241.275 156.611 238.781 156.807Z" fill="#F9AEC7"/>
<path d="M236.199 157.325C235.041 157.416 233.925 158.006 233.375 159.029C232.628 160.421 232.775 162.17 233.4 163.628C233.823 164.615 234.439 165.498 235.116 166.337C235.698 167.059 236.888 166.884 237.164 165.998C237.209 165.855 237.242 165.708 237.262 165.556C237.504 163.702 237.746 161.848 237.987 159.994C238.152 158.733 238.693 157.129 236.199 157.325Z" fill="#F9AEC7"/>
<path d="M254.27 207.28L265.823 199.25L247.143 170.613L243.232 159.477C243.232 159.477 236.531 147.598 235.531 148.259C234.531 148.92 240.074 163.504 240.074 163.504L236.072 164.46C236.072 164.46 230.189 162.134 229.759 163.603C229.329 165.072 235.571 169.245 235.571 169.245C235.571 169.245 236.479 172.847 239.492 173.766L254.27 207.28Z" fill="#F9C7D8"/>
<path d="M298.364 113.61C301.105 110.443 305.022 108.516 309.207 108.348C317.104 108.032 329.259 109.958 333.162 123.835C338.78 145.315 348.876 207.279 348.876 207.279C348.876 207.279 311.022 215.709 284.255 207.279C284.255 207.279 285.694 155.743 295.125 119.772C295.72 117.497 296.824 115.39 298.364 113.61Z" fill="#090841"/>
<path d="M264.737 197.563C264.737 197.563 276.345 180.806 288.07 168.125C299.795 155.445 307.192 158.5 307.192 158.5L308.101 175.941L273.315 213.854C269.134 218.41 261.893 218.064 258.088 213.19C254.998 209.23 253.767 206.34 251.401 200.457C253.709 197 258.115 194.079 262.081 193.543L264.737 197.563Z" fill="#B5164E"/>
<path d="M359.204 377.478C359.959 377.687 360.735 378.003 361.525 378.404C363.781 379.577 366.026 381.463 367.45 383.501C367.934 384.204 367.851 385.158 367.281 385.791C363.132 390.427 346.36 408.837 344.263 405.862C342.993 404.066 344.937 397.996 347.047 392.69C348.905 387.998 350.887 383.901 350.887 383.901L303.191 344.144C300.173 341.629 297.897 338.34 296.607 334.629L285.654 303.142L315.642 294.5V330C315.64 330 339.262 346.795 359.204 377.478Z" fill="#F9AEC7"/>
<path d="M367.45 383.5C367.934 384.203 367.851 385.157 367.281 385.79C363.132 390.426 346.36 408.836 344.263 405.861C342.993 404.065 344.937 397.995 347.047 392.689C349.115 393.33 350.525 395.311 350.525 395.311C351.468 394.885 357.541 388.881 359.984 384.582C361.291 382.277 361.552 380.009 361.526 378.404C363.781 379.576 366.026 381.462 367.45 383.5Z" fill="#090841"/>
<path d="M340.73 409.95C341.12 410.63 341.45 411.4 341.73 412.24C342.51 414.66 342.78 417.58 342.36 420.03C342.21 420.87 341.48 421.49 340.63 421.54C334.42 421.92 309.55 423.22 310.15 419.63C310.51 417.46 316.16 414.51 321.39 412.22C326.01 410.19 330.3 408.67 330.3 408.67L315.64 305.33H345L339.67 341.67C339.67 341.67 348.12 374.11 340.73 409.95Z" fill="#F9C7D8"/>
<path d="M342.36 420.03C342.21 420.87 341.48 421.49 340.63 421.54C334.42 421.92 309.55 423.22 310.15 419.63C310.51 417.46 316.16 414.51 321.39 412.22C322.41 414.13 322.02 416.53 322.02 416.53C322.99 416.89 331.53 416.89 336.29 415.55C338.84 414.83 340.62 413.4 341.73 412.24C342.51 414.66 342.78 417.58 342.36 420.03Z" fill="#090841"/>
<path d="M364.364 221.439L374.514 260.902C374.514 260.902 380.85 266.104 379.85 267.104C378.85 268.104 375.1 264.854 375.1 264.854C375.1 264.854 377.35 269.854 376.35 270.604C375.35 271.354 372.527 266.284 372.527 266.284C372.527 266.284 373.72 272.277 372.527 272.399C371.334 272.521 370.479 266.936 370.479 266.936C370.479 266.936 370.355 273.133 369.01 273.133C367.665 273.133 368.033 267.058 368.033 267.058C368.033 267.058 366.076 271.583 364.853 270.849C363.63 270.115 366.443 264 366.443 264L351.522 227.188L364.364 221.439Z" fill="#F9C7D8"/>
<path d="M353.67 316.33C353.67 316.33 307 330 275.75 306.25L300.25 199.5C300.25 199.5 290.75 194.25 293.25 182.75C295.75 171.25 302 158.5 302 158.5L316.5 156.5L319.96 157.2L337.5 161L341.5 218.5C341.5 218.5 352.5 235.25 354.75 257.25C357 279.25 353.67 316.33 353.67 316.33Z" fill="#D41E5E"/>
<path d="M330.5 177L337.5 161C337.5 161 345.5 160.75 352 176.75C358.5 192.75 367.25 226.5 367.25 226.5C367.25 226.5 363.75 231.25 353 233L330.5 177Z" fill="#D41E5E"/>
<path d="M315.76 164.07C312.47 165.24 309.13 164.3 308.29 161.97C307.66 160.19 308.65 158.13 310.59 156.72V141.02L319.96 139.15V157.2C320.05 157.36 320.13 157.53 320.19 157.71C321.03 160.04 319.04 162.89 315.76 164.07Z" fill="#F9C7D8"/>
<path d="M319.96 139.15V151.55C315.63 154.36 311.15 154.61 311.15 154.61C310.96 154.5 310.77 154.38 310.59 154.25V141.02L319.96 139.15Z" fill="#F9AEC7"/>
<path d="M300.948 118.644C300.948 118.644 299.637 123.794 296.173 124.168C296.173 124.168 294.488 141.584 306.566 148.794C306.566 148.794 321.735 147.951 323.233 131.846C323.233 131.846 322.297 130.067 314.712 127.539C307.127 125.011 302.539 122.577 300.948 118.644Z" fill="#F9C7D8"/>
<path d="M353.67 316.33C353.67 316.33 307 330 275.75 306.25L300.25 199.5C300.25 199.5 307.02 204.8 314.24 196.01C314.24 196.01 312.96 208.58 302.41 207.28L285.65 297.3C285.65 297.3 298.47 322.4 353.67 316.33Z" fill="#B5164E"/>
<path d="M338.759 162.027C336.233 172.371 336.235 183.322 338.766 193.665C333.663 183.597 333.148 171.821 338.759 162.027Z" fill="#B5164E"/>
<path d="M314.24 196.01C314.24 196.01 310.912 206.212 332.667 202.685C332.667 202.685 321.834 213.833 308.101 202.685C310.927 201.59 312.784 199.091 314.24 196.01Z" fill="#B5164E"/>
</svg>
