<?xml version="1.0" encoding="UTF-8"?>
<svg id="Final" xmlns="http://www.w3.org/2000/svg" viewBox="0 0 1462.66 1462.66">
  <defs>
    <style>
      .cls-1 {
        fill: #3f64af;
      }

      .cls-1, .cls-2 {
        stroke-width: 0px;
      }

      .cls-2 {
        fill: #e93266;
      }

      .cls-3 {
        fill: #231f20;
        font-family: JosefinSans-SemiBold, 'Josefin Sans';
        font-size: 204px;
        font-weight: 600;
      }
    </style>
  </defs>
  <g>
    <path class="cls-1" d="M566.07,671.15l-10.35,23.25c-1.59-6.79-4.83-13.14-9.48-18.43l5.07-11.38c3.98-8.94-.04-19.41-8.98-23.39-4.47-1.99-9.32-1.98-13.56-.35-4.23,1.63-7.85,4.87-9.84,9.34l-16,35.94c-.84,1.88-1.31,3.82-1.47,5.76-.6,7.29,3.39,14.49,10.45,17.63,1.52.68,3.09,1.12,4.67,1.35,1.57.23,3.15.24,4.69.05l-7.2,16.17c-2.98-.44-5.95-1.29-8.84-2.57-5.93-2.64-10.73-6.78-14.15-11.77-5.4-7.88-7.36-17.9-4.9-27.51.47-1.83,1.09-3.65,1.89-5.44l16.11-36.18c3.8-8.55,10.71-14.74,18.8-17.85,8.09-3.11,17.37-3.13,25.92.68,17.09,7.61,24.78,27.63,17.17,44.72Z"/>
    <path class="cls-2" d="M545.3,717.81l-16.11,36.18c-3.8,8.54-10.71,14.74-18.8,17.85-8.09,3.11-17.37,3.13-25.92-.68-17.09-7.61-24.78-27.63-17.17-44.72l10.35-23.25c1.59,6.79,4.83,13.14,9.48,18.43l-4.96,11.15c-3.98,8.94.04,19.41,8.98,23.39,4.47,1.99,9.32,1.98,13.56.35,4.23-1.63,7.85-4.87,9.84-9.34l16-35.94c.84-1.88,1.31-3.82,1.47-5.76.6-7.29-3.39-14.49-10.45-17.63-3.05-1.36-6.27-1.78-9.36-1.4l7.09-15.93c2.98.44,5.95,1.29,8.84,2.57,5.93,2.64,10.73,6.78,14.15,11.77,5.4,7.88,7.36,17.89,4.9,27.51-.47,1.83-1.09,3.65-1.89,5.44Z"/>
  </g>
  <text class="cls-3" transform="translate(308.18 770.68)"><tspan x="0" y="0">tr</tspan></text>
  <text class="cls-3" transform="translate(569.01 770.68)"><tspan x="0" y="0">mz.me</tspan></text>
</svg>