<svg width="1100" height="800" viewBox="0 0 1100 800" fill="none" xmlns="http://www.w3.org/2000/svg">
<g clip-path="url(#clip0_726_2)">
<g opacity="0.5">
<path d="M517.023 668.118C487.914 668.202 458.805 668.88 429.747 672.01C418.791 673.19 408.064 675.786 397.083 676.833C375.149 678.925 353.607 682.826 331.595 684.626C313.869 686.075 296.069 686.931 278.394 688.769C261.823 690.493 243.478 690.095 227.035 687.247C214.862 685.138 202.633 683.951 190.664 680.565C177.275 676.776 162.73 674.067 148.78 674.165C128.888 674.304 109.515 674.32 90.479 681.01C83.796 683.358 75.616 687.219 70.541 692.147C58.924 703.429 57.352 731.579 68.951 743.28C88.487 762.973 130.184 770.7 157.568 771.065C187.576 771.465 216.727 769.307 246.779 768.039C274.704 766.86 302.558 765.183 330.529 765.242C387.656 765.363 444.791 765.242 501.815 761.546C555.39 758.074 609.1 759.266 662.793 759.266C717.853 759.266 772.54 759.685 827.203 766.772C851.02 769.86 875.284 770.941 899.221 773.104C920.658 775.042 941.259 773.066 962.611 771.275C980.54 769.771 998.352 765.311 1014.64 757.772C1027.53 751.804 1050.52 733.265 1054.47 719.02C1065.56 679.085 898.254 680.045 872.566 680.135C843.83 680.236 814.865 681.151 786.152 680.09C774.074 679.644 762.173 677.357 750.385 674.852C738.643 672.357 726.813 672.991 714.906 671.942C665.251 667.568 615.485 668.208 565.671 668.208C549.46 668.209 533.242 668.071 517.023 668.118Z" fill="#EED5D5"/>
</g>
<path d="M374.595 142.613C376.61 142.613 378.607 142.687 380.587 142.821C387.281 104.203 421.165 74.8201 461.966 74.8201C480.625 74.8201 497.836 80.9681 511.664 91.3311C526.609 65.1521 554.918 47.4851 587.387 47.4851C635.429 47.4851 674.375 86.1591 674.375 133.867C674.375 136.89 674.217 139.877 673.912 142.82C675.885 142.687 677.874 142.614 679.88 142.614C727.922 142.614 766.868 181.288 766.868 228.996C766.868 276.703 727.922 315.378 679.88 315.378H374.595C326.553 315.378 287.607 276.703 287.607 228.996C287.608 181.288 326.553 142.613 374.595 142.613Z" fill="#8CABEF"/>
<path d="M521.395 409.178L505.603 414.595L480.051 452.891L447.331 430.999L436.933 443.34L453.435 467.827L483.148 489.045L521.395 449.018V409.178Z" fill="#3B3387"/>
<path d="M594.385 324.254L595.592 307.073L581.696 296.315L575.869 303.935L582.144 315.142L579.903 320.969L586.064 330.223L594.385 324.254Z" fill="#EAC1A4"/>
<path d="M484.272 519.376L483.148 616.586L493.508 741.726H507.594L524.449 626.273L543.724 510.622L484.272 519.376Z" fill="#292949"/>
<path d="M507.513 747.665L492.281 755.281L484.665 747.665L492.281 740.049H507.513V747.665Z" fill="#1F1F35"/>
<path d="M580.846 519.376L581.123 575.615L571.623 741.726H557.537L533.974 631.495L521.395 510.622L580.846 519.376Z" fill="#292949"/>
<path d="M557.619 747.665L572.851 755.281L580.467 747.665L572.851 740.049H557.619V747.665Z" fill="#1F1F35"/>
<path d="M595.495 553.239C595.797 562.162 595.603 574.098 591.846 574.544C591.143 574.627 590.464 574.316 589.845 574.015C583.312 570.841 578.656 566.355 572.215 563.288C565.466 560.075 557.796 558.393 550.299 557.232C539.118 555.446 527.752 554.373 516.499 554.273C506.828 554.188 496.77 558.599 487.627 561.026C484.107 561.96 481.245 564.525 478.321 566.536C474.003 569.507 472.109 570.684 472.698 564.613C473.659 554.708 474.657 544.805 475.875 534.927C478.306 515.226 481.614 495.572 487.212 476.5C489.35 469.214 491.818 462.03 494.284 454.848C497.287 446.103 500.29 437.357 503.294 428.612C507.026 417.743 513.326 410.086 524.356 406.284C533.889 402.998 545.729 402.099 555.001 406.699C565.308 411.812 570.209 429.231 575.217 438.539C579.605 446.696 585.136 468.944 586.778 477.738C588.755 488.322 590.581 498.857 592.019 509.363C593.611 521 594.734 532.602 595.059 544.137C595.094 545.413 595.351 548.979 595.495 553.239Z" fill="#3B3387"/>
<path d="M533.038 408.607C533.261 408.801 533.519 408.954 533.817 409.052C534.408 409.247 535.05 409.176 535.669 409.103C538.187 408.805 540.705 408.507 543.223 408.209C542.392 400.498 546.9 398.754 551.292 393.795C555.744 388.767 554.374 381.989 554.123 375.836C554.051 374.123 553.968 372.357 553.243 370.803C551.972 368.075 549.011 366.569 546.137 365.676C538.803 363.397 530.415 363.958 523.958 368.115C522.239 369.221 520.635 370.612 519.704 372.431C518.268 375.237 518.633 378.585 519.033 381.711C519.648 386.516 521.07 391.235 523.787 395.284C526.318 399.057 531.144 400.864 531.699 405.391C531.842 406.56 532.196 407.876 533.038 408.607Z" fill="#EAC1A4"/>
<path d="M519.245 376.125C519.673 378.063 520.577 380.023 520.106 381.951C517.028 380.906 515.017 377.758 513.927 374.558C513.433 373.108 513.074 371.572 513.198 370.037C513.322 368.502 513.989 366.96 515.2 366.093C516.891 364.883 519.924 365.358 520.408 367.551C520.897 369.763 518.601 373.21 519.245 376.125Z" fill="#292949"/>
<path d="M502.905 359.105C502.978 356.783 503.863 354.709 505.937 353.307C507.726 352.099 509.788 351.097 510.874 349.177C511.717 347.687 511.841 345.842 512.677 344.347C514.19 341.64 517.475 340.843 520.332 339.925C527.48 337.629 531.328 334.979 538.899 337.918C544.281 340.007 551.236 340.287 556.232 343.335C558.318 344.608 560.094 346.653 561.55 348.93C566.597 356.821 567.809 367.916 564.521 376.147C563.785 377.989 562.85 379.683 561.851 381.305C559.852 384.549 557.712 388.539 554.173 390.127C553.95 388.599 552.812 387.755 552.456 386.253C552.2 385.172 552.286 384.039 552.341 382.926C552.559 378.599 553.886 371.756 549.564 369.61C544.099 366.897 533.849 369.344 528.585 371.641C523.928 373.674 516.068 376.318 511.103 374.141C506.497 372.121 502.75 364.065 502.905 359.105Z" fill="#292949"/>
<path d="M550.687 405.712L599.009 391.47L581.123 331.057L595.862 320.485L631.441 390.422L621.602 414.641L575.432 438.472L550.687 405.712Z" fill="#3B3387"/>
<path d="M858.793 398.414L844.691 399.007L802.637 438.909L740.179 430.548L736.029 445.841L797.411 467.827H815.945L848.809 447.653L858.793 398.414Z" fill="#F7F7F7"/>
<path d="M740.303 440.027L732.02 446.3L725.357 446.778L724.901 444.559L728.445 442.319L715.555 441.94L713.304 436.174L727.493 429.881L741.677 431.292L740.303 440.027Z" fill="#EAC1A4"/>
<path d="M829.615 724.736L817.901 733.034L813.996 739.379C813.996 739.379 818.389 741.331 820.829 741.819C823.269 742.307 842.305 739.379 842.305 739.379V728.153L829.615 724.736Z" fill="#1F1F35"/>
<path d="M920.637 728.27L916.314 736.134C916.314 736.134 913.609 746.069 915.953 745.388C918.297 744.707 931.36 742.437 931.889 740.758C932.418 739.079 938.087 732.35 938.752 731.14C939.417 729.93 936.596 721.837 936.596 721.837L920.637 728.27Z" fill="#1F1F35"/>
<path d="M840.519 543.208L878.342 656.122L920.637 728.269L937.042 723.503L909.001 641.217C909.001 641.217 905.615 558.557 900.076 534.244L840.519 543.208Z" fill="#353A85"/>
<path d="M810.579 560.249L825.222 728.153H842.793L848.162 642.248L858.249 566.193L819.853 521.201L810.579 560.249Z" fill="#353A85"/>
<path d="M810.016 452.81C811.834 444.156 812.551 434.841 816.837 426.773C821.123 418.704 829.219 412.592 835.469 405.732C838.117 402.826 840.943 399.8 844.879 398.415C847.577 397.466 850.553 397.38 853.459 397.307C862.273 397.085 871.087 396.863 879.901 396.641C883.114 396.56 886.456 396.501 889.386 397.661C893.776 399.401 896.257 403.444 898.426 407.216C903.966 416.85 904.987 427.535 905.483 438.424C905.467 438.526 912.359 575.186 906.892 572.621C900.084 569.426 892.295 567.728 884.656 566.539C873.885 564.813 862.89 563.716 851.912 563.446L832.589 564.749H820.928C813.93 565.428 814.504 567.532 807.312 567.095C802.711 566.814 807.931 462.729 810.016 452.81Z" fill="#F7F7F7"/>
<path d="M860.646 401.726C865.02 401.536 869.395 401.346 873.769 401.156C874.005 397.672 873.962 394.169 873.64 390.692C877.337 389.618 881.633 387.939 882.475 384.182C882.74 382.999 882.602 381.767 882.462 380.563C881.883 375.584 881.305 370.605 880.726 365.626C880.526 363.904 880.31 362.131 879.463 360.618C877.978 357.963 874.881 356.666 871.917 355.981C864.354 354.232 855.94 355.424 849.741 360.098C848.091 361.342 846.577 362.863 845.775 364.767C844.538 367.702 845.156 371.05 845.793 374.172C846.381 377.053 846.969 379.934 847.557 382.815C848.233 386.129 849.266 389.91 852.345 391.309C853.98 392.052 855.963 391.971 857.422 393.018C859.995 394.862 859.416 398.809 860.646 401.726Z" fill="#EAC1A4"/>
<path d="M836.41 338.45C837.381 338.277 838.372 338.072 839.376 337.635C842.545 336.256 844.765 333.49 848.13 332.195C854.936 329.577 863.473 329.957 870.158 332.769C876.556 335.46 885.288 336.496 891.014 340.111C893.405 341.621 895.255 343.876 896.658 346.331C901.519 354.838 900.921 366.162 895.189 374.109C893.903 375.892 892.394 377.503 890.816 379.034C887.551 382.203 883.639 386.124 879.334 387.126C879.443 383.331 883.558 371.573 880.82 368.305C877.189 363.972 870.063 364.083 864.956 364.561C858.871 365.131 853.862 363.177 847.794 363.481C844.703 363.636 841.208 364.257 838.838 362.267C836.098 359.966 830.306 352.658 828.932 349.451C827.729 346.643 828.531 343.185 830.622 340.958C832.428 339.036 834.377 338.812 836.41 338.45Z" fill="#292949"/>
<path d="M861.829 401.618C861.371 404.82 860.389 408.454 860.389 408.454C860.389 408.454 836.017 478.664 833.7 484.27C833.182 485.522 832.926 486.863 832.926 488.218L838.522 504.651L849.627 490.918L864.694 412.247L868.354 409.106L869.639 401.13L861.829 401.618Z" fill="#D67086"/>
<path d="M873.887 435.488L867.478 474.455L797.555 492.595V511.25L881.207 502.409L895.663 479.06L894.271 418.624L873.887 435.488Z" fill="#F7F7F7"/>
<path d="M797.555 507.635L789.541 511.25L773.165 507.527L775.954 498.665L788.671 497.909L791.228 493.607L797.433 495.265L797.555 507.635Z" fill="#EAC1A4"/>
<path d="M442.554 431.535L426.427 437.584L422.424 454.697L431.778 456.826L439.359 446.457L445.59 446.071L451.442 436.62L442.554 431.535Z" fill="#EAC1A4"/>
<path d="M226.214 748.762L225.549 755.683L211.538 761.685L205.531 754.305L212.868 747.844L226.879 741.842L226.214 748.762Z" fill="#1F1F35"/>
<path d="M237.915 608.497L227.127 746.58L213.627 748.415L202.453 630.725L193.214 593.387L237.915 608.497Z" fill="#474EBB"/>
<path d="M270.2 572.261L278.293 736.342L265.978 738.66L240.32 614.505L226.205 578.555L270.2 572.261Z" fill="#474EBB"/>
<path d="M267.074 744.091L281.705 748.565L287.05 740.331L279.078 734.604L265.76 737.11L267.074 744.091Z" fill="#1F1F35"/>
<path d="M252.788 395.045C242.816 386.79 218.776 391.536 206.128 391.536C207.345 391.536 194.14 462.142 193.722 468.3C192.199 490.75 185.242 513.459 175.641 534.016C171.593 542.682 166.769 551.042 163.891 560.164C159.122 575.28 159.135 593.088 160.483 608.733C174.058 612.464 186.772 619.451 200.733 621.262C212.218 622.752 223.818 620.639 235.354 619.618C248.996 618.411 262.735 618.733 276.39 617.683C290.046 616.633 303.849 614.123 315.936 607.683C310.53 597.223 306.368 586.172 302.904 574.932C299.465 563.771 295.04 551.376 293.784 539.738C292.65 529.225 292.464 518.526 290.935 507.866C289.155 495.466 287.017 483.105 284.047 470.93C280.65 457.006 276.168 443.348 270.665 430.115C266.476 420.041 261.476 403.54 253.606 395.785C253.346 395.527 253.073 395.28 252.788 395.045Z" fill="#DDDAE8"/>
<path d="M231.604 356.877C237.921 358.027 245.709 363.424 247.232 370.088C247.965 373.297 246.92 376.252 247.841 379.656C249.631 386.373 241.504 396.269 249.55 400.937C253.685 403.337 258.853 402.559 263.558 401.709C264.128 401.606 264.725 401.491 265.177 401.127C265.92 400.528 266.045 399.408 265.763 398.496C265.481 397.584 264.877 396.814 264.349 396.019C258.821 387.706 260.16 375.782 258.01 366.315C255.865 356.866 250.788 347.455 241.427 343.577C236.76 346.6 233.367 351.526 232.204 356.963L231.604 356.877Z" fill="#292949"/>
<path d="M239.53 397.555C245.608 394.955 249.634 388.768 250.958 382.292C252.281 375.816 251.233 369.073 249.443 362.71C243.488 341.534 216.912 347.6 210.715 365.708C205.315 381.488 221.859 405.113 239.53 397.555Z" fill="#EAC1A4"/>
<path d="M208.589 409.204C211.572 407.349 214.498 405.408 216.226 401.944C219.02 396.345 217.841 387.646 218.175 381.573C218.524 375.171 219.107 368.195 223.497 363.522C226.364 360.47 229.89 359.632 233.873 359.226C236.601 358.948 236.794 359.972 238.977 358.309C240.651 357.034 241.876 353.55 242.117 351.554C242.524 348.186 240.897 344.811 238.491 342.42C234.788 338.74 230.633 337.111 225.553 337.432C207.724 338.558 195.267 350.249 191.734 368.063C190.036 376.626 192.615 385.777 190.729 394.039C189.564 399.14 186.665 402.719 185.827 408.117C183.652 422.123 177.57 440.316 179.357 454.454C179.423 454.977 179.535 455.554 179.958 455.869C180.819 456.511 181.945 455.544 182.574 454.673C186.244 449.59 189.914 444.507 193.584 439.424C195.025 437.428 196.485 435.398 197.32 433.082C199.399 427.316 197.467 420.251 201.054 415.281C203.013 412.567 205.826 410.922 208.589 409.204Z" fill="#292949"/>
<path d="M180.544 544.9C180.033 548.464 182.881 557.573 186.22 559.554C193.927 564.126 191.135 552.634 191.062 548.444C192.535 548.863 193.947 549.312 195.443 549.435C196.815 549.548 192.753 537.26 191.401 536.116C188.154 533.37 185.848 534.78 181.905 535.204C181.527 538.436 181.009 541.67 180.544 544.9Z" fill="#EAC1A4"/>
<path d="M190.247 415.262L149.888 485.73L178.592 547.284L188.325 534.417L178.075 479.323L216.202 456.026L212.028 410.777L190.247 415.262Z" fill="#DDDAE8"/>
<path d="M258.227 401.726L294.027 458.931L313.661 431.656L332.21 434.777L323.415 479.031L299.062 497.105L258.227 472.618V401.726Z" fill="#DDDAE8"/>
<path d="M449.876 527.539L323.457 516.77C318.674 516.363 315.128 512.155 315.535 507.373L316.816 492.338C317.224 487.555 321.431 484.009 326.213 484.416L452.632 495.186C457.415 495.593 460.961 499.801 460.554 504.583L459.273 519.618C458.866 524.4 454.659 527.947 449.876 527.539Z" fill="#3D5092"/>
<path d="M327.186 435.536L241.262 425.45C216.228 422.512 193.341 440.59 190.402 465.624L185.45 507.813C182.512 532.847 200.59 555.734 225.624 558.673L311.548 568.759C336.582 571.698 359.469 553.619 362.408 528.585L367.36 486.395C370.299 461.362 352.22 438.474 327.186 435.536ZM340.385 483.229L335.433 525.419C334.253 535.469 324.766 542.964 314.715 541.784L228.791 531.698C218.741 530.518 211.246 521.03 212.426 510.98L217.378 468.791C218.558 458.741 228.045 451.247 238.096 452.426L324.02 462.512C334.07 463.691 341.564 473.179 340.385 483.229Z" fill="#5D66D3"/>
<path d="M541.727 444.181H455.213C430.007 444.181 409.384 464.804 409.384 490.011V532.49C409.384 557.696 430.007 578.32 455.213 578.32H541.727C566.933 578.32 587.557 557.696 587.557 532.49V490.01C587.557 464.804 566.933 444.181 541.727 444.181ZM560.396 532.489C560.396 542.609 551.847 551.158 541.727 551.158H455.213C445.094 551.158 436.544 542.609 436.544 532.489V490.01C436.544 479.89 445.093 471.342 455.213 471.342H541.727C551.846 471.342 560.396 479.891 560.396 490.01V532.489Z" fill="#5D66D3"/>
<path d="M817.681 518.342L815.159 475.938C813.663 450.776 791.851 431.414 766.69 432.91L680.329 438.046C655.167 439.543 635.805 461.354 637.301 486.516L639.823 528.92C641.32 554.082 663.131 573.444 688.292 571.948L774.654 566.812C799.815 565.315 819.177 543.504 817.681 518.342ZM773.04 539.698L686.678 544.834C676.577 545.435 667.535 537.408 666.934 527.307L664.412 484.903C663.811 474.801 671.838 465.76 681.939 465.159L768.3 460.023C778.402 459.422 787.443 467.449 788.044 477.55L790.566 519.954C791.169 530.056 783.142 539.097 773.04 539.698Z" fill="#5D66D3"/>
<path d="M671.243 522.213H544.365C539.565 522.213 535.674 518.322 535.674 513.522V498.432C535.674 493.632 539.565 489.741 544.365 489.741H671.242C676.042 489.741 679.933 493.632 679.933 498.432V513.522C679.933 518.322 676.042 522.213 671.243 522.213Z" fill="#3D5092"/>
<path d="M442.554 431.535L426.427 437.584L422.424 454.697L431.778 456.826L439.359 446.457L445.59 446.071L451.442 436.62L442.554 431.535Z" fill="#EAC1A4"/>
<path d="M313.661 431.656L328.634 430.328L338.243 442.282L331.687 447.489L321.808 442.191L316.758 444.24L308.586 439.012L313.661 431.656Z" fill="#EAC1A4"/>
</g>
<defs>
<clipPath id="clip0_726_2">
<rect width="1100" height="800" fill="white"/>
</clipPath>
</defs>
</svg>
